<svg aria-hidden="true" style="position:absolute;width:0;height:0;overflow:hidden" xmlns="http://www.w3.org/2000/svg">
    <defs>
        <symbol id="icon-cup-hot" viewBox="0 0 32 32">
            <path d="M1 12a1.007 1.007 0 0 0-.779.374.997.997 0 0 0-.197.842l3.304 14.868A4.998 4.998 0 0 0 8.208 32h11.584a4.996 4.996 0 0 0 4.88-3.916l.262-1.18a6 6 0 0 0 2.601-11.708l.442-1.98A1.003 1.003 0 0 0 27.001 12h-26zm25 13a4.05 4.05 0 0 1-.632-.05l1.734-7.796A4.002 4.002 0 0 1 26 25zM5.28 27.65 2.246 14h23.508L22.72 27.65A2.995 2.995 0 0 1 19.792 30H8.208a2.998 2.998 0 0 1-2.928-2.35zM8.8 1.6l-.006.008-.028.038c-.146.2-.282.407-.408.62a4.003 4.003 0 0 0-.282.534c-.052.12-.068.184-.074.206v.008c.023.177.085.346.182.496.15.266.356.544.616.89l.02.024c.236.316.52.694.74 1.086.224.4.44.91.44 1.49 0 .376-.13.736-.238.988a6.142 6.142 0 0 1-.404.776 10.2 10.2 0 0 1-.506.764l-.036.05-.01.016-.004.004a1.004 1.004 0 0 1-1.4.202A1 1 0 0 1 7.2 8.4l.006-.008.028-.038c.146-.2.282-.407.408-.62.107-.171.202-.349.282-.534.052-.12.068-.184.074-.206a1.199 1.199 0 0 0-.18-.504A8.024 8.024 0 0 0 7.2 5.6l-.02-.024c-.27-.345-.517-.708-.74-1.086A3.066 3.066 0 0 1 6 3c0-.376.13-.736.238-.988.118-.276.268-.548.404-.776.159-.261.328-.516.506-.764l.05-.07A1.004 1.004 0 0 1 8.598.2 1.004 1.004 0 0 1 8.8 1.6zm6 0-.006.008-.028.038c-.146.2-.282.407-.408.62a4.003 4.003 0 0 0-.282.534c-.052.12-.068.184-.074.206v.008c.023.177.085.346.182.496.15.266.356.544.616.89l.02.024c.236.316.52.694.74 1.086.224.4.44.91.44 1.49 0 .376-.13.736-.238.988a6.142 6.142 0 0 1-.404.776 10.2 10.2 0 0 1-.506.764l-.036.05-.01.016-.004.004a1.004 1.004 0 0 1-1.4.202 1 1 0 0 1-.202-1.4l.006-.008.028-.038c.146-.2.282-.407.408-.62.107-.171.202-.349.282-.534.052-.12.068-.184.074-.206a1.199 1.199 0 0 0-.18-.504 8.024 8.024 0 0 0-.618-.89l-.02-.024c-.27-.345-.517-.708-.74-1.086A3.066 3.066 0 0 1 12 3c0-.376.13-.736.238-.988.118-.276.268-.548.404-.776.159-.261.328-.516.506-.764l.05-.07a1.004 1.004 0 0 1 1.4-.202 1 1 0 0 1 .202 1.4zm6 0-.006.008-.028.038c-.145.2-.282.407-.408.62a4.003 4.003 0 0 0-.282.534c-.052.12-.068.184-.074.206v.008c.023.177.085.346.182.496.15.266.356.544.616.89l.02.024c.236.316.52.694.74 1.086.224.4.44.91.44 1.49 0 .376-.13.736-.238.988a6.142 6.142 0 0 1-.404.776 9.875 9.875 0 0 1-.504.764l-.038.05-.01.016-.004.004a1.004 1.004 0 0 1-1.4.202 1 1 0 0 1-.202-1.4l.006-.008.028-.038c.145-.2.282-.407.408-.62.107-.171.202-.349.282-.534.052-.12.068-.184.074-.206a1.199 1.199 0 0 0-.18-.504 8.024 8.024 0 0 0-.618-.89l-.02-.024c-.27-.345-.517-.708-.74-1.086A3.066 3.066 0 0 1 18 3c0-.376.13-.736.238-.988.118-.276.268-.548.404-.776.159-.261.328-.516.506-.764l.05-.07a1.004 1.004 0 0 1 1.4-.202 1 1 0 0 1 .202 1.4z"/>
        </symbol>
        <symbol id="icon-fridge" viewBox="0 0 32 32">
            <path d="M23.667 9.333a.997.997 0 0 0-1-1 .997.997 0 0 0-1 1V12a.997.997 0 0 0 1 1 .997.997 0 0 0 1-1V9.333zm0 9.334a.997.997 0 0 0-1-1 .997.997 0 0 0-1 1v2.667a.997.997 0 0 0 1 1 .997.997 0 0 0 1-1v-2.667z"/>
            <path d="M16.075 1.667h-.149c-2.451 0-4.392 0-5.911.204-1.563.211-2.828.653-3.827 1.651-.997.999-1.44 2.264-1.651 3.827-.204 1.52-.204 3.46-.204 5.911v4.149c0 2.451 0 4.392.204 5.911.211 1.563.653 2.828 1.651 3.827.613.612 1.325 1.015 2.145 1.284v.904a1 1 0 0 0 1 1h1.333a.997.997 0 0 0 1-1v-.395c1.209.061 2.62.061 4.259.061h.149c1.64 0 3.049 0 4.259-.061v.395a1 1 0 0 0 1 1h1.333a.997.997 0 0 0 1-1v-.904c.82-.269 1.533-.672 2.145-1.284.997-.999 1.44-2.264 1.651-3.827.204-1.52.204-3.46.204-5.911v-4.148c0-2.451 0-4.392-.204-5.911-.211-1.563-.653-2.828-1.651-3.827-.999-.997-2.264-1.44-3.827-1.651-1.52-.204-3.46-.204-5.911-.204zM7.603 4.936c.564-.564 1.337-.903 2.679-1.083 1.371-.184 3.176-.187 5.719-.187s4.349.003 5.72.187c1.34.18 2.113.519 2.677 1.083s.903 1.337 1.083 2.679c.184 1.371.187 3.176.187 5.719v1H6.335v-1c0-2.543.003-4.348.187-5.72.18-1.34.519-2.113 1.083-2.677zm-1.27 11.397h19.333v1c0 2.543-.003 4.349-.187 5.72-.18 1.34-.519 2.113-1.083 2.677s-1.337.903-2.679 1.083c-1.371.184-3.176.187-5.719.187s-4.348-.003-5.72-.187c-1.34-.18-2.113-.519-2.677-1.083s-.903-1.337-1.083-2.679c-.184-1.369-.187-3.176-.187-5.719v-1z"/>
        </symbol>
        <symbol id="icon-fuel-pump" viewBox="0 0 32 32">
            <path d="M6 5a.997.997 0 0 1 1-1h10a.997.997 0 0 1 1 1v10a.997.997 0 0 1-1 1H7a.997.997 0 0 1-1-1V5z"/>
            <path d="M2 4a4.003 4.003 0 0 1 4-4h12a4.003 4.003 0 0 1 4 4v16a4.003 4.003 0 0 1 4 4v1a.997.997 0 0 0 1 1 .997.997 0 0 0 1-1v-9h-1a.997.997 0 0 1-1-1V8.75a.997.997 0 0 1 1-1h2.99c-.022-.952-.106-1.788-.402-2.444a1.944 1.944 0 0 0-.788-.916C28.432 4.17 27.872 4 27 4a.997.997 0 0 1-1-1 .997.997 0 0 1 1-1c1.128-.003 2.069.221 2.824.672.766.456 1.268 1.102 1.588 1.814.59 1.31.588 2.93.588 4.162v6.35c0 .132-.025.262-.076.383s-.124.232-.217.325a.991.991 0 0 1-.708.293h-1v9a3.004 3.004 0 0 1-3 3 2.998 2.998 0 0 1-3-3v-1a2 2 0 0 0-2-2v8h1a.997.997 0 0 1 1 1 .997.997 0 0 1-1 1h-22a.997.997 0 0 1-1-1 .997.997 0 0 1 1-1h1v-26zm18 0a2 2 0 0 0-2-2H6a2 2 0 0 0-2 2v26h16V4z"/>
        </symbol>
        <symbol id="icon-gas-stove" viewBox="0 0 32 32">
            <path d="M4.051 5.562c-0.127 0.579-0.185 1.36-0.185 2.438v16c0 1.077 0.058 1.859 0.185 2.438 0.124 0.565 0.297 0.857 0.475 1.035s0.47 0.351 1.035 0.476c0.579 0.127 1.36 0.185 2.438 0.185h16c1.077 0 1.859-0.058 2.438-0.185 0.565-0.124 0.857-0.297 1.035-0.476s0.351-0.47 0.475-1.035c0.127-0.579 0.185-1.36 0.185-2.438v-16c0-1.077-0.058-1.859-0.185-2.438-0.124-0.565-0.297-0.857-0.475-1.035s-0.47-0.351-1.035-0.475c-0.579-0.127-1.36-0.185-2.438-0.185h-16c-1.077 0-1.859 0.058-2.438 0.185-0.565 0.124-0.857 0.297-1.035 0.475s-0.351 0.47-0.475 1.035zM5.047 1.707c0.835-0.183 1.823-0.241 2.953-0.241h16c1.129 0 2.117 0.057 2.953 0.241 0.849 0.186 1.614 0.519 2.218 1.123s0.936 1.369 1.122 2.218c0.183 0.835 0.241 1.823 0.241 2.953v16c0 1.129-0.057 2.117-0.241 2.953-0.186 0.849-0.519 1.614-1.122 2.218s-1.369 0.936-2.218 1.122c-0.835 0.183-1.823 0.241-2.953 0.241h-16c-1.129 0-2.117-0.057-2.953-0.241-0.849-0.186-1.614-0.519-2.218-1.122s-0.936-1.369-1.123-2.218c-0.183-0.835-0.241-1.823-0.241-2.953v-16c0-1.129 0.057-2.117 0.241-2.953 0.186-0.849 0.519-1.614 1.123-2.218s1.369-0.936 2.218-1.123zM6.8 25.333c0-0.663 0.537-1.2 1.2-1.2h5.333c0.663 0 1.2 0.537 1.2 1.2s-0.537 1.2-1.2 1.2h-5.333c-0.663 0-1.2-0.537-1.2-1.2zM24 24.133c0.663 0 1.2 0.537 1.2 1.2v0.012c0 0.663-0.537 1.2-1.2 1.2s-1.2-0.537-1.2-1.2v-0.012c0-0.663 0.537-1.2 1.2-1.2z"></path>
            <path d="M16 9.2c-2.283 0-4.133 1.851-4.133 4.133s1.851 4.133 4.133 4.133c2.283 0 4.133-1.851 4.133-4.133s-1.851-4.133-4.133-4.133zM9.467 13.333c0-3.608 2.925-6.533 6.533-6.533s6.533 2.925 6.533 6.533c0 3.608-2.925 6.533-6.533 6.533s-6.533-2.925-6.533-6.533z"></path>
            <path d="M16 5.467c0.663 0 1.2 0.537 1.2 1.2v2c0 0.663-0.537 1.2-1.2 1.2s-1.2-0.537-1.2-1.2v-2c0-0.663 0.537-1.2 1.2-1.2zM8.133 13.333c0-0.663 0.537-1.2 1.2-1.2h2c0.663 0 1.2 0.537 1.2 1.2s-0.537 1.2-1.2 1.2h-2c-0.663 0-1.2-0.537-1.2-1.2zM19.467 13.333c0-0.663 0.537-1.2 1.2-1.2h2c0.663 0 1.2 0.537 1.2 1.2s-0.537 1.2-1.2 1.2h-2c-0.663 0-1.2-0.537-1.2-1.2zM16 16.8c0.663 0 1.2 0.537 1.2 1.2v2c0 0.663-0.537 1.2-1.2 1.2s-1.2-0.537-1.2-1.2v-2c0-0.663 0.537-1.2 1.2-1.2z"></path>
        </symbol>
        <symbol id="icon-grid-1_2" viewBox="0 0 32 32">
            <path d="M12 2H2v28h10V2zm18 0H20v10h10V2zm0 18v10H20V20h10zM0 2a2 2 0 0 1 2-2h10a2 2 0 0 1 2 2v28a2 2 0 0 1-2 2H2a2 2 0 0 1-2-2V2zm18 0a2 2 0 0 1 2-2h10a2 2 0 0 1 2 2v10a2 2 0 0 1-2 2H20a2 2 0 0 1-2-2V2zm2 16a2 2 0 0 0-2 2v10a2 2 0 0 0 2 2h10a2 2 0 0 0 2-2V20a2 2 0 0 0-2-2H20z"/>
        </symbol>
        <symbol id="icon-grid-2" viewBox="0 0 32 32">
            <path d="M2 5a3.004 3.004 0 0 1 3-3h6a3.004 3.004 0 0 1 3 3v6a3.004 3.004 0 0 1-3 3H5a3.004 3.004 0 0 1-3-3V5zm3-1a.997.997 0 0 0-1 1v6a.997.997 0 0 0 1 1h6a.997.997 0 0 0 1-1V5a.997.997 0 0 0-1-1H5zm13 1a3.004 3.004 0 0 1 3-3h6a3.004 3.004 0 0 1 3 3v6a3.004 3.004 0 0 1-3 3h-6a3.004 3.004 0 0 1-3-3V5zm3-1a.997.997 0 0 0-1 1v6a.997.997 0 0 0 1 1h6a.997.997 0 0 0 1-1V5a.997.997 0 0 0-1-1h-6zM2 21a3.004 3.004 0 0 1 3-3h6a3.004 3.004 0 0 1 3 3v6a3.004 3.004 0 0 1-3 3H5a3.004 3.004 0 0 1-3-3v-6zm3-1a.997.997 0 0 0-1 1v6a.997.997 0 0 0 1 1h6a.997.997 0 0 0 1-1v-6a.997.997 0 0 0-1-1H5zm13 1a3.004 3.004 0 0 1 3-3h6a3.004 3.004 0 0 1 3 3v6a3.004 3.004 0 0 1-3 3h-6a3.004 3.004 0 0 1-3-3v-6zm3-1a.997.997 0 0 0-1 1v6a.997.997 0 0 0 1 1h6a.997.997 0 0 0 1-1v-6a.997.997 0 0 0-1-1h-6z"/>
        </symbol>
        <symbol id="icon-grid-3" viewBox="0 0 32 32">
            <path d="M8 4v4H4V4h4zm2 24v-4a2 2 0 0 0-2-2H4a2 2 0 0 0-2 2v4a2 2 0 0 0 2 2h4a2 2 0 0 0 2-2zm0-10v-4a2 2 0 0 0-2-2H4a2 2 0 0 0-2 2v4a2 2 0 0 0 2 2h4a2 2 0 0 0 2-2zm0-10V4a2 2 0 0 0-2-2H4a2 2 0 0 0-2 2v4a2 2 0 0 0 2 2h4a2 2 0 0 0 2-2zm10 20v-4a2 2 0 0 0-2-2h-4a2 2 0 0 0-2 2v4a2 2 0 0 0 2 2h4a2 2 0 0 0 2-2zm0-10v-4a2 2 0 0 0-2-2h-4a2 2 0 0 0-2 2v4a2 2 0 0 0 2 2h4a2 2 0 0 0 2-2zm0-10V4a2 2 0 0 0-2-2h-4a2 2 0 0 0-2 2v4a2 2 0 0 0 2 2h4a2 2 0 0 0 2-2zm-2-4v4h-4V4h4zm10 0v4h-4V4h4zM8 14v4H4v-4h4zm10 0v4h-4v-4h4zm10 0h-4v4h4v-4zM8 24v4H4v-4h4zm10 0v4h-4v-4h4zm10 0v4h-4v-4h4zM24 2a2 2 0 0 0-2 2v4a2 2 0 0 0 2 2h4a2 2 0 0 0 2-2V4a2 2 0 0 0-2-2h-4zm-2 12a2 2 0 0 1 2-2h4a2 2 0 0 1 2 2v4a2 2 0 0 1-2 2h-4a2 2 0 0 1-2-2v-4zm2 8a2 2 0 0 0-2 2v4a2 2 0 0 0 2 2h4a2 2 0 0 0 2-2v-4a2 2 0 0 0-2-2h-4z"/>
        </symbol>
        <symbol id="icon-heart" viewBox="0 0 32 32">
            <path d="m16 13.139-1.788-3.578c-.444-.886-1.214-2.16-2.304-3.19C10.836 5.357 9.552 4.667 8 4.667c-3.352 0-6 2.652-6 5.84 0 2.422 1.108 4.132 3.736 6.74.674.668 1.442 1.39 2.292 2.186C10.244 21.513 13 24.101 16 27.561c3-3.46 5.756-6.048 7.972-8.128.85-.796 1.62-1.52 2.292-2.186C28.892 14.639 30 12.929 30 10.507c0-3.188-2.648-5.84-6-5.84-1.554 0-2.836.69-3.908 1.704-1.09 1.03-1.86 2.304-2.304 3.19L16 13.139zm.784 16.584a1.022 1.022 0 0 1-1.216.269 1.04 1.04 0 0 1-.352-.269c-3.202-3.804-6.1-6.524-8.486-8.762C2.6 17.083 0 14.645 0 10.507c0-4.33 3.58-7.84 8-7.84 3.2 0 5.438 2.1 6.808 4.016.52.73.916 1.432 1.192 1.984.346-.691.745-1.354 1.192-1.984C18.562 4.765 20.8 2.667 24 2.667c4.42 0 8 3.51 8 7.84 0 4.138-2.6 6.576-6.73 10.454-2.386 2.24-5.284 4.962-8.486 8.762z"/>
        </symbol>
        <symbol id="icon-map" viewBox="0 0 32 32">
            <path d="M31.634.226A.991.991 0 0 1 32 1v28a.999.999 0 0 1-.804.98l-10 2a.995.995 0 0 1-.392 0L11 30.02l-9.804 1.96a.995.995 0 0 1-1.1-.552A1.003 1.003 0 0 1 0 31V3a.999.999 0 0 1 .804-.98l10-2a.995.995 0 0 1 .392 0L21 1.98 30.804.02a.996.996 0 0 1 .83.206zM20 3.82l-8-1.6v25.96l8 1.6V3.82zm2 25.96 8-1.6V2.22l-8 1.6v25.96zm-12-1.6V2.22l-8 1.6v25.96l8-1.6z"/>
        </symbol>
        <symbol id="icon-microwave" viewBox="0 0 32 32">
            <path d="M5.333 6.333c-0.92 0-1.667 0.746-1.667 1.667v14.667c0 0.921 0.746 1.667 1.667 1.667h21.333c0.92 0 1.667-0.746 1.667-1.667v-14.667c0-0.92-0.746-1.667-1.667-1.667h-21.333zM1.667 8c0-2.025 1.642-3.667 3.667-3.667h21.333c2.025 0 3.667 1.642 3.667 3.667v14.667c0 2.025-1.642 3.667-3.667 3.667h-21.333c-2.025 0-3.667-1.642-3.667-3.667v-14.667z"></path>
            <path d="M9.333 11.667c-0.184 0-0.333 0.149-0.333 0.333v6.667c0 0.184 0.149 0.333 0.333 0.333h8c0.184 0 0.333-0.149 0.333-0.333v-6.667c0-0.184-0.149-0.333-0.333-0.333h-8zM7 12c0-1.289 1.045-2.333 2.333-2.333h8c1.289 0 2.333 1.045 2.333 2.333v6.667c0 1.289-1.045 2.333-2.333 2.333h-8c-1.289 0-2.333-1.045-2.333-2.333v-6.667z"></path>
            <path d="M24 9.667c0.552 0 1 0.448 1 1v9.333c0 0.552-0.448 1-1 1s-1-0.448-1-1v-9.333c0-0.552 0.448-1 1-1zM8 24.333c0.552 0 1 0.448 1 1v2.667c0 0.552-0.448 1-1 1s-1-0.448-1-1v-2.667c0-0.552 0.448-1 1-1zM24 24.333c0.552 0 1 0.448 1 1v2.667c0 0.552-0.448 1-1 1s-1-0.448-1-1v-2.667c0-0.552 0.448-1 1-1z"></path>
        </symbol>
        <symbol id="icon-radio" viewBox="0 0 32 32">
            <path d="M14 5a.997.997 0 0 1 1-1h14a.997.997 0 0 1 1 1v2a.997.997 0 0 1-1 1H15a.997.997 0 0 1-1-1V5zM0 24a5.996 5.996 0 0 1 6-6 6.002 6.002 0 0 1 4.243 10.243A6 6 0 0 1 0 24zm14-3a.997.997 0 0 1 1-1h14a.997.997 0 0 1 1 1v2a.997.997 0 0 1-1 1H15a.997.997 0 0 1-1-1v-2zm0-10a.997.997 0 0 1 1-1h10a.997.997 0 0 1 1 1 .997.997 0 0 1-1 1H15a.997.997 0 0 1-1-1zm0 16a.997.997 0 0 1 1-1h10a.997.997 0 0 1 1 1 .997.997 0 0 1-1 1H15a.997.997 0 0 1-1-1zM6 2a5.99 5.99 0 0 0-4.243 1.758A6.01 6.01 0 0 0-.001 8.001a5.99 5.99 0 0 0 1.758 4.243A6.01 6.01 0 0 0 6 14.002a5.996 5.996 0 0 0 6-6 5.996 5.996 0 0 0-6-6zm0 9a3.004 3.004 0 0 1-3-3 3.004 3.004 0 0 1 3-3 3.004 3.004 0 0 1 3 3 3.004 3.004 0 0 1-3 3z"/>
        </symbol>
        <symbol id="icon-rating" viewBox="0 0 32 32">
            <path d="M15.116 2.676a1 1 0 0 1 1.769 0l3.777 7.158c.145.274.408.466.714.519l7.975 1.38a1 1 0 0 1 .547 1.682l-5.641 5.804a1 1 0 0 0-.273.839l1.152 8.01a1 1 0 0 1-1.431 1.04l-7.263-3.571a.998.998 0 0 0-.882 0l-7.262 3.571a1 1 0 0 1-1.431-1.04l1.152-8.01a1 1 0 0 0-.273-.839l-5.64-5.804a1 1 0 0 1 .547-1.682l7.974-1.38a.998.998 0 0 0 .714-.519l3.776-7.158z"/>
        </symbol>
        <symbol id="icon-shower" viewBox="0 0 32 32">
            <path d="M8 29.5a1.495 1.495 0 0 1-.926 1.385 1.504 1.504 0 0 1-1.635-.325 1.497 1.497 0 0 1-.326-1.635 1.5 1.5 0 0 1 2.885.574zm2.5-5.5a1.495 1.495 0 0 0-1.385.926 1.496 1.496 0 0 0 .326 1.635c.21.21.477.353.768.41s.592.028.867-.085a1.496 1.496 0 0 0 .926-1.385 1.503 1.503 0 0 0-1.5-1.5zm-8 0a1.495 1.495 0 0 0-1.385.926 1.496 1.496 0 0 0 .326 1.635c.21.21.477.353.768.41s.593.028.867-.085a1.5 1.5 0 0 0-.574-2.885zm4-4a1.495 1.495 0 0 0-1.385.926 1.496 1.496 0 0 0 .326 1.635c.21.21.477.353.768.41s.593.028.867-.085a1.5 1.5 0 0 0-.574-2.885zM32 5a.997.997 0 0 1-1 1h-3.586l-3.481 3.482-2.707 15.849a1.995 1.995 0 0 1-1.363 1.573 2.002 2.002 0 0 1-2.023-.49L5.59 14.164a2.002 2.002 0 0 1 1.086-3.389l15.842-2.709 3.775-3.775a1.007 1.007 0 0 1 .708-.293h4a.997.997 0 0 1 1 1zm-10.224 5.224L7 12.75 19.25 25l2.526-14.776z"/>
        </symbol>
        <symbol id="icon-transmission" viewBox="0 0 32 32">
            <path d="M12 7a3.004 3.004 0 0 1 3-3h2a3.004 3.004 0 0 1 3 3v2a3.004 3.004 0 0 1-3 3v2h11a.997.997 0 0 1 1 1v2a.997.997 0 0 1-1 1 .997.997 0 0 1-1-1v-1H17v1a.997.997 0 0 1-1 1 .997.997 0 0 1-1-1v-1H5v1a.997.997 0 0 1-1 1 .997.997 0 0 1-1-1v-2a.997.997 0 0 1 1-1h11v-2a3.004 3.004 0 0 1-3-3V7zm5 3a.997.997 0 0 0 1-1V7a.997.997 0 0 0-1-1h-2a.997.997 0 0 0-1 1v2a.997.997 0 0 0 1 1h2zM0 23a3.004 3.004 0 0 1 3-3h2a3.004 3.004 0 0 1 3 3v2a3.004 3.004 0 0 1-3 3H3a3.004 3.004 0 0 1-3-3v-2zm3-1a.997.997 0 0 0-1 1v2a.997.997 0 0 0 1 1h2a.997.997 0 0 0 1-1v-2a.997.997 0 0 0-1-1H3zm9 1a3.004 3.004 0 0 1 3-3h2a3.004 3.004 0 0 1 3 3v2a3.004 3.004 0 0 1-3 3h-2a3.004 3.004 0 0 1-3-3v-2zm3-1a.997.997 0 0 0-1 1v2a.997.997 0 0 0 1 1h2a.997.997 0 0 0 1-1v-2a.997.997 0 0 0-1-1h-2zm9 1a3.004 3.004 0 0 1 3-3h2a3.004 3.004 0 0 1 3 3v2a3.004 3.004 0 0 1-3 3h-2a3.004 3.004 0 0 1-3-3v-2zm3-1a.997.997 0 0 0-1 1v2a.997.997 0 0 0 1 1h2a.997.997 0 0 0 1-1v-2a.997.997 0 0 0-1-1h-2z"/>
        </symbol>
        <symbol id="icon-tv" viewBox="0 0 32 32">
            <path d="M0 8s0-4 4-4h24s4 0 4 4v12s0 4-4 4h-8c0 1.333.167 2.333.5 3H22a.997.997 0 0 1 1 1 .997.997 0 0 1-1 1H10a.997.997 0 0 1-1-1 .997.997 0 0 1 1-1h1.5c.333-.667.5-1.667.5-3H4s-4 0-4-4V8zm2.796-1.71c-.22.153-.395.361-.508.604A3.013 3.013 0 0 0 2 8.02V20c0 .65.156 1.004.29 1.204.14.208.341.377.604.508.338.162.703.259 1.076.286l.05.002H28c.65 0 1.004-.156 1.204-.29.22-.153.395-.361.508-.604.162-.338.259-.703.286-1.076l.002-.05V8c0-.65-.156-1.004-.29-1.204a1.511 1.511 0 0 0-.604-.508A3.018 3.018 0 0 0 27.98 6H4c-.65 0-1.004.156-1.204.29z"/>
        </symbol>
        <symbol id="icon-water" viewBox="0 0 32 32">
            <path d="M16 4.631c-1.035 1.226-2.965 3.63-4.675 6.416-1.848 3.010-3.325 6.287-3.325 8.953 0 2.549 0.798 4.526 2.136 5.864s3.315 2.136 5.864 2.136 4.526-0.798 5.864-2.136c1.338-1.338 2.136-3.315 2.136-5.864 0-2.666-1.478-5.943-3.325-8.953-1.71-2.786-3.64-5.19-4.674-6.416zM15.269 2.656c0.229-0.106 0.479-0.16 0.732-0.16s0.502 0.055 0.732 0.16c0.229 0.106 0.433 0.26 0.598 0.451l0.001 0.001c1.005 1.176 3.15 3.8 5.049 6.893 1.873 3.051 3.621 6.738 3.621 9.999 0 2.974-0.941 5.497-2.722 7.278s-4.304 2.722-7.278 2.722-5.497-0.941-7.278-2.722c-1.781-1.781-2.722-4.304-2.722-7.278 0-3.261 1.748-6.948 3.621-9.999 1.899-3.094 4.044-5.717 5.050-6.893l0-0.001c0.164-0.192 0.368-0.346 0.598-0.452z"></path>
            <path d="M21.5 19.5c0.552 0 1 0.448 1 1 0 1.459-0.579 2.858-1.611 3.889s-2.43 1.611-3.889 1.611c-0.552 0-1-0.448-1-1s0.448-1 1-1c0.928 0 1.819-0.369 2.475-1.025s1.025-1.547 1.025-2.475c0-0.552 0.448-1 1-1z"></path>
        </symbol>
        <symbol id="icon-wind" viewBox="0 0 32 32">
            <path d="M25 4a5 5 0 0 0-5 5 .997.997 0 0 1-1 1 .997.997 0 0 1-1-1 6.994 6.994 0 0 1 4.322-6.467 6.998 6.998 0 0 1 9.544 5.102 7.006 7.006 0 0 1-2.976 7.186 6.994 6.994 0 0 1-3.889 1.18h-24a.997.997 0 0 1-1-1 .997.997 0 0 1 1-1h24a5 5 0 0 0 0-10zM11 6a2 2 0 0 0-2 2 .997.997 0 0 1-1 1 .997.997 0 0 1-1-1 4.004 4.004 0 0 1 2.469-3.695A4 4 0 1 1 11 12H1a.997.997 0 0 1-1-1 .997.997 0 0 1 1-1h10a2 2 0 0 0 0-4zM0 19a.997.997 0 0 1 1-1h20.084a5.998 5.998 0 0 1 4.242 10.243 5.996 5.996 0 0 1-6.539 1.301 5.999 5.999 0 0 1-3.704-5.543.997.997 0 0 1 1-1 .997.997 0 0 1 1 1 4.004 4.004 0 0 0 2.469 3.695 4 4 0 1 0 1.531-7.695H.999a.997.997 0 0 1-1-1z"/>
        </symbol>
    </defs>
</svg>